<?xml version="1.0" encoding="utf-8"?>
<!-- Generator: Adobe Illustrator 28.1.0, SVG Export Plug-In . SVG Version: 6.00 Build 0)  -->
<svg version="1.1" id="Layer_1" xmlns="http://www.w3.org/2000/svg" xmlns:xlink="http://www.w3.org/1999/xlink" x="0px" y="0px"
	 viewBox="0 0 1920 1080" style="enable-background:new 0 0 1920 1080;" xml:space="preserve">
<style type="text/css">
	.st0{clip-path:url(#SVGID_00000142893913713463824320000008950208607552576163_);fill:#FFFFFF;}
	.st1{fill:#FFFFFF;}
</style>
<g>
	<g>
		<g>
			<defs>
				<path id="SVGID_1_" d="M758.57,602.05c1.38,0.8,3.37,2.18,5.24,4.44c2.37,2.83,3.4,5.7,3.9,7.42
					c-34.24,4.78-59.68,21.5-63.42,42.42c-0.73,4.02-0.84,9.22,0.99,15.57c-5.09,0.5-16.41,0.77-26.82-6.16
					c-17.18-11.48-17.79-33.17-17.94-38.02c-0.31-11.21,3.02-20.01,5.2-24.71c-4.36-14.46-9.72-41.2,3.67-62.93
					c12.13-19.7,38.14-32.9,47.05-37.41c4.01-2.02,9.66-4.66,16.81-8.91l-84.33-146.06L533.74,547.25
					c-29.82,51.65-21.62,116.84,20.07,159.5l0,0c52.19,53.4,138.09,53.4,190.28,0l0,0c26.18-26.78,39.14-62.46,37.79-98.08
					C771.93,602.58,762.14,602.09,758.57,602.05z"/>
			</defs>
			<use xlink:href="#SVGID_1_"  style="overflow:visible;fill:#FFFFFF;"/>
			<clipPath id="SVGID_00000088123498126549929940000017137488853847922609_">
				<use xlink:href="#SVGID_1_"  style="overflow:visible;"/>
			</clipPath>
			<path style="clip-path:url(#SVGID_00000088123498126549929940000017137488853847922609_);fill:#FFFFFF;" d="M758.57,602.05
				c1.38,0.8,3.37,2.18,5.24,4.44c2.37,2.83,3.4,5.7,3.9,7.42c-34.24,4.78-59.68,21.5-63.42,42.42c-0.73,4.02-0.84,9.22,0.99,15.57
				c-5.09,0.5-16.41,0.77-26.82-6.16c-17.18-11.48-17.79-33.17-17.94-38.02c-0.31-11.21,3.02-20.01,5.2-24.71
				c-4.36-14.46-9.72-41.2,3.67-62.93c12.13-19.7,38.14-32.9,47.05-37.41c4.01-2.02,9.66-4.66,16.81-8.91l-84.33-146.06
				L533.74,547.25c-29.82,51.65-21.62,116.84,20.07,159.5l0,0c52.19,53.4,138.09,53.4,190.28,0l0,0
				c26.18-26.78,39.14-62.46,37.79-98.08C771.93,602.58,762.14,602.09,758.57,602.05z"/>
		</g>
		<path class="st1" d="M695.46,579.71c-2.33,6.24-1.19,11.82-0.61,14.04c9.87-2.52,16.98-9.53,17.94-17.63
			c0.54-4.48-0.96-8.26-2.14-10.52C709.26,566.06,699.32,569.5,695.46,579.71z"/>
	</g>
	<g>
		<path class="st1" d="M859.16,444.96c0.89-4.88,5.62-8.83,10.59-8.83h30.03c4.97,0,8.28,3.95,7.4,8.83l-9.87,54.61
			c0,0-0.61,3.74,2.51,1.48l64.31-61.96c2.07-2.01,4.8-3.15,7.44-3.15h46.81c3.07,0,4.08,3.51,1.71,5.83l-75.72,72.97
			c-0.7,0.66-0.87,1.63-0.42,2.28l49.1,72.61c1.54,2.31-0.74,5.81-3.81,5.81h-46.81c-2.64,0-4.94-1.16-6.3-3.15l-28.81-42.61
			l-21.49,20.59c-0.99,0.95-1.67,2.15-1.9,3.42l-2.3,12.72c-0.89,4.88-5.62,8.83-10.59,8.83H841c-4.97,0-8.28-3.95-7.39-8.83
			L859.16,444.96z"/>
		<path class="st1" d="M1187.08,513.69c-4.14,22.93-26.42,41.53-49.75,41.53l-72.72,0.06c-0.99,0-1.94,0.8-2.11,1.77l-5.3,29.38
			c-0.89,4.88-5.62,8.83-10.59,8.83h-29.99c-4.97,0-8.29-3.95-7.4-8.83l25.59-141.62c0.89-4.88,5.62-8.83,10.59-8.83h113.47
			c23.33,0,38.89,18.58,34.74,41.53L1187.08,513.69z M1137.73,475.84H1079c-0.99,0-1.94,0.8-2.11,1.78l-6.51,36.01
			c-0.17,0.99,0.48,1.77,1.48,1.77h58.73c4.42,0,8.62-3.53,9.43-7.86l4.31-23.82C1145.1,479.37,1142.15,475.82,1137.73,475.84z"/>
		<path class="st1" d="M1193.45,586.42l25.61-141.75c0.89-4.88,5.64-8.86,10.61-8.86h134.1c2.98,0,4.97,2.39,4.44,5.3l-5.43,30.03
			c-0.53,2.94-3.38,5.33-6.36,5.33h-93.2c-0.99,0-1.94,0.8-2.11,1.78l-2.96,16.42c-0.17,0.97,0.49,1.78,1.48,1.78h74.96
			c2.98,0,4.97,2.36,4.44,5.3l-4.99,27.58c-0.53,2.92-3.38,5.3-6.36,5.3h-74.96c-0.99,0-1.95,0.8-2.11,1.78l-2.77,15.32
			c-0.17,0.97,0.48,1.78,1.48,1.78h93.2c2.98,0,4.97,2.37,4.44,5.3l-5.6,31.15c-0.53,2.91-3.38,5.3-6.36,5.3h-134.1
			C1195.9,595.27,1192.59,591.3,1193.45,586.42z"/>
	</g>
	<g>
		<path class="st1" d="M830.11,630.95h4.31v21.45c3.28-3.26,14.77-14.31,21.93-21.45h5.54l-18.64,17.95l19.64,24.39h-5.3
			l-17.42-21.59l-5.76,5.13v16.46h-4.31V630.95z"/>
		<path class="st1" d="M890.32,667.1c0,2.73,0.24,5.26,0.42,6.19h-3.89c-0.24-0.71-0.42-2.1-0.53-4.38
			c-1.05,2.16-3.62,5.11-9.74,5.11c-7.13,0-10.2-4.63-10.2-9.24c0-6.76,5.26-9.84,14.38-9.84c2.36,0,4.35,0,5.53,0v-2.88
			c0-2.89-0.89-6.61-7.28-6.61c-5.68,0-6.57,2.91-7.19,5.36h-3.99c0.38-3.74,2.7-8.78,11.28-8.77c7.19,0.01,11.19,2.99,11.19,9.81
			V667.1z M886.35,658.03c-1.07,0-3.66,0-5.51,0c-6.46,0-10.24,1.73-10.24,6.55c0,3.54,2.48,6.02,6.53,6.02
			c8.1,0,9.22-5.41,9.22-11.52V658.03z"/>
		<path class="st1" d="M896.53,669.82l18.5-23.47h-17.57v-3.58h22.24v3.61l-18.25,23.33h19l-0.79,3.58h-23.13V669.82z"/>
		<path class="st1" d="M927.63,630.95h15.55c7.97,0,13.43,4.43,13.43,12.03c0,7.9-5.57,12.33-13.82,12.33h-10.79v17.97h-4.38V630.95
			z M932.01,651.52h10.83c6.37,0,9.24-3.27,9.24-8.41c0-5.45-3.64-8.37-9.01-8.37h-11.06V651.52z"/>
		<path class="st1" d="M964.5,658.66c0.05,7.11,3.63,11.78,9.19,11.78c5.32,0,7.1-2.89,8.14-5.27h4.12
			c-1.24,3.98-4.5,8.85-12.4,8.85c-9.43,0-13.17-7.91-13.17-15.71c0-8.89,4.44-16.27,13.52-16.27c9.6,0,12.7,8.02,12.7,14.11
			c0,0.89,0,1.71-0.07,2.52H964.5z M982.43,655.51c-0.06-5.58-3.01-10.01-8.64-10.01c-5.87,0-8.5,4.09-9.11,10.01H982.43z"/>
		<path class="st1" d="M993.76,651.06c0-4.73-0.05-7.03-0.06-8.3h3.98c0.07,0.92,0.14,3.08,0.14,6.56
			c1.69-4.37,5.47-7.08,10.46-7.29v4.19c-6.31,0.32-10.46,4.2-10.46,11.67v15.39h-4.06V651.06z"/>
		<path class="st1" d="M1016.71,673.29v-27h-5.1v-3.52h5.1v-4.02c0-5.35,1.78-10.68,8.57-10.68c1.01,0,2.43,0.17,3.17,0.41v3.63
			c-0.83-0.21-2.14-0.33-3.01-0.33c-3.39,0-4.66,2.26-4.66,7.18v3.81h6.41v3.52h-6.41v27H1016.71z"/>
		<path class="st1" d="M1057.22,657.97c0,8.63-4.85,16.05-14.06,16.05c-8.47,0-13.67-6.77-13.67-15.97c0-8.86,4.99-16.01,14-16.01
			C1051.77,642.04,1057.22,648.38,1057.22,657.97z M1033.73,658.03c0,7,3.65,12.42,9.67,12.42c6.13,0,9.59-5.07,9.59-12.41
			c0-7.05-3.42-12.43-9.71-12.43C1036.89,645.61,1033.73,650.87,1033.73,658.03z"/>
		<path class="st1" d="M1090.65,652.94h-21.35v16.52h23.41l-0.59,3.83h-27.1v-42.34h26.68v3.83h-22.4v14.33h21.35V652.94z"/>
		<path class="st1" d="M1099.3,650.46c0-2.67,0-5.28-0.06-7.69h3.96c0.13,0.94,0.2,4.56,0.16,5.44c1.29-2.89,3.78-6.17,9.89-6.17
			c5.56,0,10.23,3.26,10.23,11.54v19.71h-4.06v-19.14c0-5.06-2.05-8.4-7.06-8.4c-6.58,0-8.99,5.28-8.99,11.7v15.84h-4.06V650.46z"/>
		<path class="st1" d="M1157.18,670.9c0,9.77-4.2,15.1-13.56,15.1c-8.54,0-11.63-4.79-12.27-9.2h4.14c1,3.82,4.12,5.72,8.3,5.72
			c7.48,0,9.45-4.79,9.45-12.22v-2.85c-1.64,3.72-4.54,5.76-9.89,5.76c-7.31,0-12.63-5.95-12.63-15.17
			c0-10.12,5.83-16.01,13.12-16.01c6.04,0,8.63,2.84,9.41,5.09c0.06-1.59,0.15-3.68,0.21-4.37h3.83c-0.01,1.4-0.11,5.9-0.11,8.83
			V670.9z M1134.98,657.88c0,6.89,3.62,11.73,9.08,11.73c7.15,0,9.29-4.77,9.29-12.18c0-7.51-2.15-11.79-9.11-11.79
			C1137.85,645.64,1134.98,651.08,1134.98,657.88z"/>
		<path class="st1" d="M1166.71,628.66h4.06v6.22h-4.06V628.66z M1166.71,642.77h4.06v30.52h-4.06V642.77z"/>
		<path class="st1" d="M1180.38,650.46c0-2.67,0-5.28-0.06-7.69h3.96c0.13,0.94,0.2,4.56,0.16,5.44c1.29-2.89,3.78-6.17,9.89-6.17
			c5.56,0,10.23,3.26,10.23,11.54v19.71h-4.06v-19.14c0-5.06-2.05-8.4-7.06-8.4c-6.58,0-8.99,5.28-8.99,11.7v15.84h-4.06V650.46z"/>
		<path class="st1" d="M1215.91,658.66c0.05,7.11,3.63,11.78,9.19,11.78c5.32,0,7.1-2.89,8.14-5.27h4.12
			c-1.24,3.98-4.5,8.85-12.4,8.85c-9.43,0-13.17-7.91-13.17-15.71c0-8.89,4.44-16.27,13.52-16.27c9.6,0,12.7,8.02,12.7,14.11
			c0,0.89,0,1.71-0.07,2.52H1215.91z M1233.85,655.51c-0.06-5.58-3.01-10.01-8.64-10.01c-5.87,0-8.5,4.09-9.11,10.01H1233.85z"/>
		<path class="st1" d="M1247.35,658.66c0.05,7.11,3.63,11.78,9.19,11.78c5.32,0,7.1-2.89,8.14-5.27h4.12
			c-1.24,3.98-4.5,8.85-12.4,8.85c-9.43,0-13.17-7.91-13.17-15.71c0-8.89,4.44-16.27,13.52-16.27c9.6,0,12.7,8.02,12.7,14.11
			c0,0.89,0,1.71-0.07,2.52H1247.35z M1265.28,655.51c-0.06-5.58-3.01-10.01-8.64-10.01c-5.87,0-8.5,4.09-9.11,10.01H1265.28z"/>
		<path class="st1" d="M1276.61,651.06c0-4.73-0.05-7.03-0.06-8.3h3.98c0.07,0.92,0.14,3.08,0.14,6.56
			c1.69-4.37,5.47-7.08,10.46-7.29v4.19c-6.31,0.32-10.46,4.2-10.46,11.67v15.39h-4.06V651.06z"/>
		<path class="st1" d="M1296.64,628.66h4.06v6.22h-4.06V628.66z M1296.64,642.77h4.06v30.52h-4.06V642.77z"/>
		<path class="st1" d="M1310.3,650.46c0-2.67,0-5.28-0.06-7.69h3.96c0.13,0.94,0.2,4.56,0.16,5.44c1.29-2.89,3.78-6.17,9.89-6.17
			c5.56,0,10.23,3.26,10.23,11.54v19.71h-4.06v-19.14c0-5.06-2.05-8.4-7.06-8.4c-6.58,0-8.99,5.28-8.99,11.7v15.84h-4.06V650.46z"/>
		<path class="st1" d="M1368.19,670.9c0,9.77-4.2,15.1-13.56,15.1c-8.54,0-11.63-4.79-12.27-9.2h4.14c1,3.82,4.12,5.72,8.3,5.72
			c7.48,0,9.45-4.79,9.45-12.22v-2.85c-1.64,3.72-4.54,5.76-9.89,5.76c-7.31,0-12.63-5.95-12.63-15.17
			c0-10.12,5.83-16.01,13.12-16.01c6.04,0,8.63,2.84,9.41,5.09c0.06-1.59,0.15-3.68,0.21-4.37h3.83c-0.01,1.4-0.11,5.9-0.11,8.83
			V670.9z M1345.98,657.88c0,6.89,3.62,11.73,9.08,11.73c7.15,0,9.29-4.77,9.29-12.18c0-7.51-2.15-11.79-9.11-11.79
			C1348.85,645.64,1345.98,651.08,1345.98,657.88z"/>
	</g>
</g>
</svg>
